<svg xmlns="http://www.w3.org/2000/svg" xml:space="preserve" width="500" height="500">
    <path d="M68.857 109.34c-1.98-.53-3.647-.987-4.549-.987-1.902 0-3.821.32-5.627.838-1.666.479-3.836.86-4.788 2.155-1.483 2.016-1.979 5.116-2.515 7.78-1.18 5.874-1.795 11.885-2.634 17.835-3.311 23.494-6.642 46.988-9.816 70.5-3.45 25.563-6.723 51.15-10.058 76.727-1.534 11.768-3.15 23.527-4.548 35.31-.478 4.017-1.103 8.073-1.078 12.09.016 2.565.37 5.22 1.196 7.66 3.525 10.408 8.21 20.507 11.854 30.882.546 1.555.822 3.297.718 4.907-.096 1.462-.422 3.124-1.317 4.308-4.652 6.157-10.14 11.88-15.324 17.716-1.481 1.666-3.664 2.95-4.67 4.788-.63 1.154-.58 2.898-.239 4.19.376 1.42.951 3.774 2.394 3.95 9.69 1.18 20.673.092 31.008.118 48.887.133 97.773.491 146.66.36 84.963-.227 169.98-.364 254.888-1.436a32.795 32.788 0 0 0 10.536-1.915c7.354-2.635 15.281-5.503 21.55-9.576 1.713-1.114 2.137-3.933 2.394-5.985.223-1.779-.053-3.894-.959-5.505-6.637-11.835-14.522-23.175-21.668-34.833-9.535-15.553-18.94-31.186-28.375-46.8-22.77-37.69-45.192-75.597-68.242-113.115-10.312-16.785-20.689-33.64-31.845-49.792-.558-.808-.324-.595-1.512-1.886-3.536-3.84-8.46-8.026-12.855-10.683-16.197-9.792-32.104-18.355-48.847-26.931-2.573-1.318-5.887-1.893-8.62-1.437-3.014.502-5.865 2.671-8.62 4.309-3.15 1.873-5.808 5.445-9.098 6.225-2.776.657-6.415-.573-9.099-1.916-2.744-1.371-4.633-4.354-7.184-6.223-4.633-3.397-9.123-7.48-14.366-9.576-5.93-2.372-12.723-3.607-19.156-3.83-7.295-.255-15.301-.262-22.029 2.394-11.47 4.526-21.579 13-32.564 19.15-8.969 5.022-17.917 10.517-27.296 14.364-3.072 1.26-6.885 1.647-10.057.958-4.171-.907-8.19-3.476-11.972-5.745-4.997-2.998-16.411-9.933-21.67-11.342z" style="fill:none;stroke:#fff;stroke-width:20;stroke-linejoin:round;stroke-dasharray:none;stroke-opacity:1"/>
</svg>
