<svg xmlns="http://www.w3.org/2000/svg" xml:space="preserve" width="500" height="500">
    <path d="M222.355 140.412c-10.948 0-50.08 3.335-75.832 10.418-2.436.674-9.327 1.044-9.527 8.755-.281 10.657-7.589 13.34-11.151 15.004-4.183 1.954-10.747 5.211-17.234 8.129-4.246 1.91-7.608 8.735-8.924 12.086-3.695 9.436-22.022 57.214-35.707 92.935-2.363 6.17-1.906 8.558-.559 12.752.836 2.597 1.51 5.115 2.282 8.05 1.293 4.923.838 6.956-2.509 10.002-8.105 7.385-18.655 16.727-23.113 20.686-7.98 7.085-16.22 13.753-21.492 18.34-5.947 5.17-4.867 18.757 7.705 17.296 12.57-1.462 72.181-9.795 77.451-10.42 5.27-.624 10.866-.711 20.884.627 10.95 1.46 23.317 4.169 34.468 6.668 8.014 1.798 14.193-1.878 17.64-8.752 3.032-6.052 8.312-17.925 9.933-23.134 1.291-4.142 2.635-12.713-.202-25.216-1.344-5.922-6.466-26.652-8.438-36.44-.194-.957-1.947-7.41.43-11.075 4.258-6.565 9.12-13.805 12.47-18.913 1.572-2.396 4.439-2.881 7.451-1.408 2.13 1.044 3.65 1.878 6.387 3.282 1.948 1.002 4.546 1.696 8.667 1.77 5.527.106 10.535.054 12.976.054 24.441 0 59.398-.146 90.833-.805 3.055-.063 5.474.805 6.286 4.765.806 3.936 5.255 2.598 7.908 1.458 17.436-7.503 36.03-15.708 38.162-16.793 18.874-9.618 28.825-19.343 35.033-25.722 8.713-8.96 14.801-14.796 31.021-31.26 3.677-3.735 6.967-6.701 11.757-8.962 12.37-5.833 17.232-7.919 30.21-13.337 7.191-3.003 8.9-6.12 6.285-12.503-1.623-3.96-3.713-8.819-7.502-17.09-3.245-7.087-8.947-7.242-11.99-5.994-1.042.431-2.674 1.009-5.49 2.123-15.168 6.009-52.048 20.27-67.272 25.545-1.925.666-8.925 1.874-14.977 1.874h-31.048c-3.374 0-27.118.235-33.276.235-5.191 0-10.675-1.138-13.812-1.838-13.23-2.956-28.412-6.349-38.677-8.819-9.057-2.175-22.702-4.373-37.507-4.373z" style="fill:none;stroke:#fff;stroke-width:20;stroke-linejoin:round;stroke-dasharray:none;stroke-opacity:1"/>
</svg>
